<svg width="43" height="43" viewBox="0 0 43 43" fill="none" xmlns="http://www.w3.org/2000/svg"><path d="M18.323 43c1.755 0 3.177-1.441 3.177-3.219 0-1.777-1.422-3.218-3.177-3.218-1.755 0-3.178 1.441-3.178 3.218 0 1.778 1.423 3.219 3.178 3.219zm6.354 0c1.755 0 3.178-1.441 3.178-3.219 0-1.777-1.423-3.218-3.178-3.218S21.5 38.004 21.5 39.781C21.5 41.56 22.922 43 24.677 43z" fill="#25A4A1"/><path d="M30.65 40.798c1.754 0 3.177-1.44 3.177-3.218s-1.423-3.219-3.178-3.219c-1.754 0-3.177 1.441-3.177 3.219 0 1.777 1.423 3.218 3.177 3.218z" fill="#25A4A1"/><path d="M35.523 36.636c1.755 0 3.177-1.441 3.177-3.219 0-1.777-1.422-3.218-3.177-3.218-1.755 0-3.178 1.441-3.178 3.218 0 1.778 1.423 3.219 3.178 3.219z" fill="#25A4A1"/><path d="M38.724 31.07c1.755 0 3.177-1.44 3.177-3.218 0-1.777-1.422-3.218-3.177-3.218-1.755 0-3.177 1.44-3.177 3.218 0 1.777 1.422 3.218 3.177 3.218z" fill="#25A4A1"/><path d="M39.823 24.706c1.755 0 3.177-1.44 3.177-3.218s-1.422-3.218-3.177-3.218c-1.755 0-3.178 1.44-3.178 3.218 0 1.777 1.423 3.218 3.178 3.218z" fill="#25A4A1"/><path d="M38.724 18.366c1.755 0 3.177-1.44 3.177-3.218s-1.422-3.218-3.177-3.218c-1.755 0-3.177 1.44-3.177 3.218 0 1.777 1.422 3.218 3.177 3.218z" fill="#25A4A1"/><path d="M35.523 12.8c1.755 0 3.177-1.44 3.177-3.218 0-1.777-1.422-3.218-3.177-3.218-1.755 0-3.178 1.44-3.178 3.218s1.423 3.219 3.178 3.219z" fill="#25A4A1"/><path d="M30.65 8.639c1.754 0 3.177-1.441 3.177-3.219 0-1.777-1.423-3.218-3.178-3.218-1.754 0-3.177 1.44-3.177 3.218s1.423 3.22 3.178 3.22z" fill="#25A4A1"/><path d="M24.677 6.437c1.755 0 3.178-1.441 3.178-3.219C27.855 1.441 26.431 0 24.677 0S21.5 1.44 21.5 3.218s1.422 3.219 3.177 3.219zm-6.354 0c1.755 0 3.177-1.441 3.177-3.219C21.5 1.441 20.078 0 18.323 0c-1.755 0-3.178 1.44-3.178 3.218s1.423 3.219 3.178 3.219zM12.35 8.639c1.755 0 3.178-1.441 3.178-3.219 0-1.777-1.423-3.218-3.177-3.218-1.755 0-3.178 1.44-3.178 3.218s1.423 3.219 3.178 3.219z" fill="#25A4A1"/><path d="M7.477 12.8c1.755 0 3.177-1.44 3.177-3.218 0-1.777-1.422-3.218-3.177-3.218-1.755 0-3.177 1.44-3.177 3.218s1.422 3.219 3.177 3.219zm-3.201 5.566c1.755 0 3.177-1.44 3.177-3.218S6.031 11.93 4.276 11.93c-1.755 0-3.177 1.44-3.177 3.218 0 1.777 1.422 3.218 3.177 3.218z" fill="#25A4A1"/><path d="M3.177 24.706c1.755 0 3.177-1.44 3.177-3.218S4.932 18.27 3.177 18.27C1.422 18.27 0 19.71 0 21.488c0 1.777 1.422 3.218 3.177 3.218z" fill="#25A4A1"/><path d="M4.276 31.07c1.755 0 3.177-1.44 3.177-3.218 0-1.777-1.422-3.218-3.177-3.218-1.755 0-3.177 1.44-3.177 3.218 0 1.777 1.422 3.218 3.177 3.218zm8.074 9.728c1.755 0 3.178-1.44 3.178-3.218s-1.423-3.219-3.177-3.219c-1.755 0-3.178 1.441-3.178 3.219 0 1.777 1.423 3.218 3.178 3.218z" fill="#25A4A1"/><path d="M7.477 36.636c1.755 0 3.177-1.441 3.177-3.219 0-1.777-1.422-3.218-3.177-3.218-1.755 0-3.177 1.441-3.177 3.218 0 1.778 1.422 3.219 3.177 3.219z" fill="#25A4A1"/><path d="M24.677 39.781l5.972-2.201 4.874-4.163 3.2-5.565 1.1-6.364-1.1-6.34-3.2-5.566-4.874-4.162-5.972-2.202h-6.354L12.35 5.42 7.477 9.582l-3.2 5.566-1.1 6.34 1.1 6.364 3.2 5.565 4.874 4.163 5.972 2.201h6.354z" fill="#fff"/></svg>