<svg width="15" height="15" viewBox="0 0 15 15" fill="none" xmlns="http://www.w3.org/2000/svg"><path d="M7.5 1.84C3.358 1.84 0 5.23 0 9.413c0 2.268.979 3.747.979 3.747h13.04S15 11.543 15 9.412c0-4.181-3.358-7.571-7.5-7.571zm5.969 10.397l-11.914-.005S.921 11.03.921 9.389c0-3.666 2.957-6.637 6.604-6.637 3.648 0 6.605 2.971 6.605 6.637 0 1.659-.661 2.848-.661 2.848z" fill="#fff"/><path d="M9.62 3.852h-.095l-2 3.92-2.073-3.954-2.837 7.142H1.88v.574H5.9v-.574h-.797L5.9 8.728l1.626 2.806 1.562-2.806.797 2.232h-.797v.574h3.986v-.574h-.69L9.62 3.851z" fill="#fff"/></svg>