<svg width="26" height="26" viewBox="0 0 26 26" fill="none" xmlns="http://www.w3.org/2000/svg">
<g clip-path="url(#clip0_6_20)">
<rect y="-1.90735e-06" width="26" height="26" rx="5.31964" fill="#7D7D7D"/>
<path d="M3.5 22.5L4.8422 17.6214C4.01301 16.1902 3.57746 14.5667 3.57946 12.9145C3.58165 7.72327 7.82515 3.5 13.0398 3.5C15.5703 3.50128 17.9455 4.48164 19.7318 6.26124C21.5181 8.04084 22.5009 10.4063 22.5 12.922C22.4977 18.1129 18.2535 22.3369 13.0397 22.3369H13.0355C11.4524 22.3363 9.89676 21.9409 8.51496 21.1908L3.5 22.5Z" fill="#F8F8F8"/>
<path d="M13.0031 4.99964C8.59028 4.99964 5.00158 8.58703 5.00001 12.9965C4.99784 14.5022 5.42184 15.9777 6.22302 17.2526L6.41335 17.5552L5.60504 20.5062L8.63292 19.7122L8.9253 19.8854C10.1533 20.6142 11.5613 20.9996 12.9971 21.0004H13.0001C17.4096 21.0004 20.9983 17.4126 21 13.0029C21.0033 11.9519 20.7981 10.9106 20.3963 9.9394C19.9944 8.9682 19.404 8.08636 18.659 7.34493C17.9182 6.59944 17.0368 6.0083 16.066 5.60573C15.0952 5.20316 14.0541 4.99716 13.0031 4.99964V4.99964Z" fill="#7D7D7D"/>
<path fill-rule="evenodd" clip-rule="evenodd" d="M10.7883 8.91806C10.6223 8.52052 10.4477 8.51247 10.29 8.50559L9.86554 8.5C9.71787 8.5 9.47793 8.55974 9.27509 8.79871C9.07226 9.03767 8.5 9.61521 8.5 10.7899C8.5 11.9646 9.29352 13.0997 9.40409 13.2591C9.51467 13.4186 10.936 15.9061 13.1868 16.8631C15.0573 17.6584 15.4379 17.5002 15.8441 17.4605C16.2502 17.4207 17.1542 16.8829 17.3386 16.3254C17.523 15.7679 17.5231 15.2902 17.4678 15.1903C17.4125 15.0905 17.2649 15.0311 17.0432 14.9116C16.8216 14.7921 15.7331 14.2146 15.5302 14.1349C15.3272 14.0551 15.1797 14.0155 15.0319 14.2545C14.8841 14.4934 14.4602 15.031 14.331 15.1903C14.2017 15.3497 14.0727 15.3697 13.8511 15.2503C13.6295 15.131 12.9164 14.8788 12.0704 14.0654C11.4121 13.4325 10.9678 12.651 10.8384 12.4121C10.709 12.1733 10.8247 12.0439 10.9357 11.925C11.0351 11.818 11.1571 11.6461 11.2681 11.5068C11.379 11.3674 11.4155 11.2678 11.4892 11.1087C11.5629 10.9496 11.5262 10.8099 11.4708 10.6905C11.4154 10.5712 10.9851 9.3904 10.7883 8.91819" fill="#F8F8F8"/>
</g>
<defs>
<clipPath id="clip0_6_20">
<rect width="26" height="26" fill="white"/>
</clipPath>
</defs>
</svg>
