<svg width="55" height="69" viewBox="0 0 55 69" fill="none" xmlns="http://www.w3.org/2000/svg"><g clip-path="url(#a)" fill="#000"><path d="M1.423 56.834c1.343 0 2.378 1.176 2.849 2.302.566-.87 1.601-2.093 2.636-2.093.646 0 .97.548.97 1.209 0 .82-.451 1.866-1.035 2.589.67.136 1.271.503 1.697 1.035.426.533.65 1.198.633 1.878 0 2.719-2.879 5.233-5.968 5.233-.537 0-.682-.37-.682-1.158a4.924 4.924 0 0 0 1.782.321c2.167 0 3.866-1.448 3.866-3.738 0-1.336-.632-2.56-2.168-2.88.306-.484.872-1.56.872-2.672 0-.434-.112-.982-.614-.982-.598 0-1.252.805-1.811 1.657.372.967.562 1.993.561 3.028 0 2.382-.842 4.486-2.04 4.486-.791 0-1.084-.888-1.084-1.69 0-1.448.751-3.67 1.668-5.233-.486-1.224-1.36-2.243-2.736-2.243-.28.003-.557.046-.824.13.486-1.062 1.067-1.177 1.423-1.177l.005-.002zm2.298 3.723a9.29 9.29 0 0 0-.922 4.12c0 1.013.21 1.93.581 1.93.536 0 .752-1.577.752-2.895a11.422 11.422 0 0 0-.411-3.155zM14.32 63.69c0 1.383-.81 3.154-2.476 3.154-.955 0-1.78-.645-1.78-1.931 0-1.383.81-3.155 2.459-3.155.972 0 1.796.66 1.796 1.931zm-3.295.981c0 .748.178 1.77.97 1.77 1.084 0 1.375-1.496 1.375-2.51 0-.747-.178-1.744-.97-1.744-1.085 0-1.375 1.495-1.375 2.492m8.268-2.876a33.285 33.285 0 0 0-.438 3.38c0 .642.097 1.158.405 1.335v.062a1.89 1.89 0 0 1-.751.21c-.421 0-.567-.322-.567-.95.059-1.23.193-2.455.404-3.668l-1.253.13-.306 2.145c-.192 1.303-.89 2.348-1.683 2.348-.25 0-.419-.112-.419-.61a1.016 1.016 0 0 1 .015-.275c.13 0 .25.017.356.017.89 0 1.343-1.69 1.343-2.74 0-.322 0-.838-.226-1.08v-.055a5.39 5.39 0 0 1 1.91-.249h1.21zm5.367 4.782c-.276.14-.58.211-.89.21-.468 0-.776-.466-1.212-1.336-.276-.546-.664-1.094-.875-1.094h-.08c-.101.66-.16 1.326-.178 1.994.004.097.015.193.033.288h-.912a2.18 2.18 0 0 1-.015-.306c.047-1.336.37-2.492.37-3.3a1.123 1.123 0 0 0-.323-.916v-.073c.253-.13.527-.214.81-.249.34 0 .436.386.436.852-.016.438-.07.875-.16 1.304h.08c.275 0 .486-.033 1.165-1.032.598-.867.791-1.092 1.212-1.092a.481.481 0 0 1 .495.272.482.482 0 0 1 .044.194.61.61 0 0 1-.37.546.47.47 0 0 0-.342-.192c-.338 0-.631.484-.809.723a3.657 3.657 0 0 1-.501.613c.16.201.298.418.413.648l.567.982c.25.433.696.837 1.034.902l.008.062zm4.8-2.895c0 1.383-.809 3.154-2.475 3.154-.954 0-1.779-.645-1.779-1.931 0-1.383.81-3.155 2.458-3.155.972 0 1.797.66 1.797 1.931zm-3.3.981c0 .748.179 1.77.97 1.77 1.085 0 1.376-1.496 1.376-2.51 0-.747-.178-1.744-.97-1.744-1.085 0-1.375 1.495-1.375 2.492m8.631-2.876a33.305 33.305 0 0 0-.405 3.38c0 .642.13 1.158.438 1.335v.062a1.898 1.898 0 0 1-.752.21c-.42 0-.566-.322-.566-.95 0-.336.015-.748.03-1.246H31.58c-.095.577-.149 1.16-.16 1.745.002.097.013.193.033.289h-.907a1.881 1.881 0 0 1-.018-.307c.05-1.336.373-2.492.373-3.3a1.123 1.123 0 0 0-.323-.916v-.053c.253-.13.527-.215.81-.249.338 0 .435.386.435.852-.024.482-.083.96-.178 1.433l1.925.112c.115-.79.228-1.744.308-2.242l.914-.155zm4.526 4.334a2.827 2.827 0 0 1-1.754.69c-.922 0-1.732-.578-1.732-1.979 0-1.447.875-3.072 2.426-3.072.631 0 1.252.271 1.252.884a.549.549 0 0 1-.361.565.557.557 0 0 1-.237.03 1.44 1.44 0 0 1-.356-.049v-.062a.841.841 0 0 0 .098-.419c-.018-.339-.178-.548-.534-.548-.907 0-1.31 1.353-1.31 2.462 0 1.303.566 1.722 1.18 1.722.49-.03.956-.223 1.325-.546l.003.322zm5.192.448c-.276.14-.581.211-.89.21-.471 0-.777-.466-1.213-1.336-.276-.546-.666-1.094-.874-1.094h-.083c-.102.66-.16 1.326-.178 1.993.004.097.014.194.033.29H40.4a1.881 1.881 0 0 1-.017-.307c.05-1.336.373-2.492.373-3.3a1.13 1.13 0 0 0-.323-.916v-.073c.252-.13.526-.215.809-.249.338 0 .436.386.436.852a7.624 7.624 0 0 1-.163 1.304h.078c.273 0 .483-.033 1.162-1.032.6-.867.795-1.092 1.215-1.092a.48.48 0 0 1 .534.466.613.613 0 0 1-.373.546.471.471 0 0 0-.338-.192c-.341 0-.632.484-.81.723a3.792 3.792 0 0 1-.5.613c.16.2.3.415.418.643l.568.982c.25.433.694.837 1.035.902l.005.067zm5.038-4.935a14.918 14.918 0 0 0-.388 3.041c0 .61.082 1.304.453 1.657v.065c-.233.125-.488.2-.752.225-.42 0-.598-.387-.598-1.11v-1.046c-.534 1.368-1.035 2.156-1.925 2.156-.681 0-.94-.467-.94-1.08 0-.787.309-2.026.309-2.621a1.415 1.415 0 0 0-.308-.997v-.065c.248-.129.517-.213.794-.249.323 0 .436.339.436.837 0 .87-.323 2.173-.323 2.831 0 .419.128.748.403.748.777 0 1.699-2.878 1.957-4.237l.882-.154zm5.387.153a14.917 14.917 0 0 0-.388 3.04c0 .61.08 1.304.453 1.658v.064a1.964 1.964 0 0 1-.752.225c-.42 0-.598-.387-.598-1.11v-1.046c-.532 1.373-1.033 2.153-1.917 2.153-.68 0-.94-.466-.94-1.076 0-.79.308-2.029.308-2.624a1.415 1.415 0 0 0-.308-.997v-.065a2.38 2.38 0 0 1 .794-.25c.324 0 .436.34.436.838 0 .87-.323 2.173-.323 2.83 0 .42.13.749.404.749.776 0 1.698-2.879 1.959-4.237l.872-.152zm-1.699-1.495c.508-.04.993-.232 1.39-.548l.101.249c-.326.466-1.345.917-2.137.917-.567 0-1.003-.224-1.003-.837 0-.402.371-.596.938-.596 0 .628.308.822.711.822M28.564 0c13.728 0 20.658 13.896 20.658 26.548 0 13.626-8.128 29.468-22.86 29.468-13.689 0-20.6-13.9-20.6-26.493C5.763 15.87 13.842 0 28.565 0zm6.264 3.13c-12.143-3.768-21.709 9.784-24.69 19.298-3.293 10.507-1.832 26.553 10.022 30.23 12.13 3.76 21.71-9.76 24.685-19.252C48.137 22.9 46.64 6.788 34.822 3.128"/><path d="M15.565 15.62a4.547 4.547 0 0 1 2.225-.65c3.257 0 6.033 3.812 7.12 6.947-2.528 4.327-4.565 10.328-4.565 14.33 0 2.108.704 4.486 2.716 4.486 3.127 0 5.355-5.732 5.355-12.167a24.64 24.64 0 0 0-1.656-8.435c1.846-2.492 3.45-4.54 5.299-4.54 1.604 0 1.93 1.567 1.93 2.863 0 2.99-1.441 5.786-2.283 7.192 4.214.92 5.818 4.271 5.818 7.974 0 6.407-4.786 10.467-10.792 10.467-1.59.015-3.17-.237-4.675-.748-.074.301-.11.61-.108.92 0 1.246.787 1.784 1.739 1.784 8.343 0 16.09-6.838 16.09-14.205 0-3.738-2.362-7-6.414-7.892 1.576-2.053 2.882-5.002 2.882-7.192 0-1.757-.815-3.162-2.42-3.162-2.827 0-5.763 3.675-7.34 6.11-1.252-3.217-4.104-6.651-7.664-6.651-.79 0-2.067.249-3.398 2.405l.14.164zm10.927 16.166c0 3.676-.68 8.11-2.31 8.11-1.196 0-1.85-2.568-1.85-5.434 0-3.892.952-8.515 2.83-11.976 1.059 3.162 1.33 6.479 1.33 9.3z"/></g><defs><clipPath id="a"><path fill="#fff" d="M0 0h55v69H0z"/></clipPath></defs></svg>